<svg xmlns="http://www.w3.org/2000/svg" viewBox="0 0 500 500"><g id="freepik--background-complete--inject-102"><path d="M473.22,311c0,.14-100,.26-223.21.26S26.78,311.11,26.78,311s99.92-.26,223.23-.26S473.22,310.83,473.22,311Z" style="fill:#e0e0e0"></path><path d="M453.65,429c-4-8.85-17.23-5.77-27-5.49-95.45,2.75-190.84-1.93-286.29.82l-70.76-.59c-7,.5-18.23,5.83-17.59,13.17s7.19,12.58,13.41,16.53a199,199,0,0,0,81.87,29.47c20.51,2.56,43.2,1.26,59-12.08,7.95-6.71,14.46-16.53,24.73-18.21,12.05-2,22.21,8.18,33.12,13.65,11.9,6,25.7,6.46,39,6.83,45.89,1.28,94.46,1.91,134.23-21C447.08,446.49,458.29,439.15,453.65,429Z" style="fill:#ebebeb"></path><path d="M463.48,278.27l.34-3.83a5.75,5.75,0,0,0-2.92-5.58,13,13,0,0,0-8.14-1.25A14.06,14.06,0,0,0,444,272.2a5.87,5.87,0,0,0-.56,7.05l2.43,3.8a16.84,16.84,0,1,0,17.6-4.78Zm-14.63,2.18-2.12-3.3a2,2,0,0,1,.2-2.36,10.11,10.11,0,0,1,6.36-3.31,9.14,9.14,0,0,1,5.74.8,1.9,1.9,0,0,1,.9,1.81l-.31,3.44a16.55,16.55,0,0,0-10.77,2.92Z" style="fill:#e0e0e0"></path><path d="M331.37,177.46s-8.93,33.51-9.86,58.35c-1.06,28.33,9.56,62,9.56,62H283.26v14.87h66.23s-13-55.25-11.23-82.65a280.81,280.81,0,0,1,8.21-50.85Z" style="fill:#e0e0e0"></path><path d="M326.29,177.46s-8.93,33.51-9.86,58.35c-1.06,28.33,9.56,62,9.56,62H293.06a14.88,14.88,0,0,0-14.88,14.87h66.23s-13-55.25-11.23-82.65a280.81,280.81,0,0,1,8.21-50.85Z" style="fill:#ebebeb"></path><path d="M234,175.38h0a3.43,3.43,0,0,0,3.43,3.44h35.26v-7.17l-35.29.3A3.43,3.43,0,0,0,234,175.38Z" style="fill:#ebebeb"></path><path d="M328.93,312.62H74.51a9.41,9.41,0,0,1-9.42-9.41h0a9.42,9.42,0,0,1,9.42-9.42H328.93a9.42,9.42,0,0,1,9.42,9.42h0A9.41,9.41,0,0,1,328.93,312.62Z" style="fill:#ebebeb"></path><path d="M290.07,312.62H74.51a9.41,9.41,0,0,1-9.42-9.41h0a9.42,9.42,0,0,1,9.42-9.42H290.07a9.42,9.42,0,0,1,9.42,9.42h0A9.41,9.41,0,0,1,290.07,312.62Z" style="fill:#e0e0e0"></path><path d="M270,177.46s-8.93,33.51-9.86,58.35c-1.06,28.33,9.56,62,9.56,62H221.87v14.87H288.1s-13-55.25-11.23-82.65a280.81,280.81,0,0,1,8.21-50.85Z" style="fill:#e0e0e0"></path><path d="M264.9,177.46S256,211,255,235.81c-1.06,28.33,9.56,62,9.56,62H231.67a14.88,14.88,0,0,0-14.88,14.87H283S270,257.4,271.79,230A280.81,280.81,0,0,1,280,179.15Z" style="fill:#ebebeb"></path><path d="M289.56,312.88c-.1,0-1.48-4.5-3.08-10.12s-2.81-10.19-2.7-10.22,1.48,4.5,3.08,10.11S289.67,312.85,289.56,312.88Z" style="fill:#e0e0e0"></path><path d="M338.35,302.1c0,.11-8.71.2-19.45.2s-19.45-.09-19.45-.2,8.7-.2,19.45-.2S338.35,302,338.35,302.1Z" style="fill:#e0e0e0"></path><path d="M335,312.62s.39-.24,1.05-.71a9.74,9.74,0,0,0,2.36-2.45,10,10,0,0,0,1.65-4.72,9.72,9.72,0,0,0-1.18-6,11.43,11.43,0,0,0-2-2.5,7.06,7.06,0,0,0-2.6-1.36,23.25,23.25,0,0,0-5-.87c-1.45-.12-2.64-.15-3.45-.18a8.05,8.05,0,0,1-1.27-.08,9.18,9.18,0,0,1,1.27-.07c.82,0,2,0,3.47,0a22.28,22.28,0,0,1,5.1.81,7.39,7.39,0,0,1,2.75,1.42,11.63,11.63,0,0,1,2.06,2.58,8.7,8.7,0,0,1,1.12,3.11,12.32,12.32,0,0,1,.08,3.08,9.83,9.83,0,0,1-1.78,4.84,9.24,9.24,0,0,1-2.5,2.43,9.11,9.11,0,0,1-.83.46A1.15,1.15,0,0,1,335,312.62Z" style="fill:#e0e0e0"></path><polygon points="267.95 172.95 265.51 179.75 280 179.15 341.4 180.87 382.4 155.1 380.54 148.34 309.14 144.95 267.95 172.95" style="fill:#ebebeb"></polygon><polygon points="345.66 182.3 280 179.15 315.06 152.64 382.4 155.1 345.66 182.3" style="fill:#e0e0e0"></polygon><path d="M271,170.87a7.64,7.64,0,0,1-1.15,1,24.25,24.25,0,0,0-2.7,2.48,11.49,11.49,0,0,0-2,3,11.54,11.54,0,0,1-.58,1.41,4.22,4.22,0,0,1,.33-1.51,9.76,9.76,0,0,1,1.92-3.21,16.14,16.14,0,0,1,2.82-2.44A5.16,5.16,0,0,1,271,170.87Z" style="fill:#e0e0e0"></path><path d="M315.06,152.64a30.87,30.87,0,0,1-3.09-3.78,30.11,30.11,0,0,1-2.77-4,30.87,30.87,0,0,1,3.09,3.78A31.3,31.3,0,0,1,315.06,152.64Z" style="fill:#e0e0e0"></path><path d="M282.05,179.45a18.62,18.62,0,0,1-2.56,0l-6.16-.14c-2.41-.07-4.59-.16-6.17-.26a16.27,16.27,0,0,1-2.54-.25,16.7,16.7,0,0,1,2.55,0l6.17.14c2.41.06,4.59.15,6.16.25A14.35,14.35,0,0,1,282.05,179.45Z" style="fill:#e0e0e0"></path><path d="M434.4,266.33l1.88-5.11a8.15,8.15,0,0,0-1.93-8.7,18.24,18.24,0,0,0-10.67-4.71A19.91,19.91,0,0,0,410,250.86a8.33,8.33,0,0,0-3.37,9.43l1.93,6.09a23.85,23.85,0,1,0,25.82-.05Zm-20.8-2.41-1.68-5.3a2.75,2.75,0,0,1,1.14-3.15,14.34,14.34,0,0,1,9.92-2.18,12.93,12.93,0,0,1,7.55,3.22,2.66,2.66,0,0,1,.56,2.81l-1.69,4.58a23.46,23.46,0,0,0-15.8,0Z" style="fill:#ebebeb"></path><rect x="63.7" y="70.11" width="78.83" height="82.18" style="fill:#e0e0e0"></rect><rect x="58.36" y="70.11" width="78.83" height="82.18" style="fill:#ebebeb"></rect><rect x="68.96" y="81.15" width="57.64" height="60.08" style="fill:#fafafa"></rect><path d="M69,141.64a12,12,0,0,1-1.44,1.63c-.93,1-2.22,2.28-3.67,3.71s-2.78,2.7-3.76,3.61A11.13,11.13,0,0,1,58.44,152a10.59,10.59,0,0,1,1.44-1.63c.92-1,2.22-2.28,3.68-3.71S66.34,144,67.32,143A10.17,10.17,0,0,1,69,141.64Z" style="fill:#e0e0e0"></path><path d="M126.6,141.49a11.34,11.34,0,0,1,1.63,1.44c1,.93,2.28,2.22,3.71,3.67s2.7,2.78,3.61,3.76A11.13,11.13,0,0,1,137,152a11.19,11.19,0,0,1-1.63-1.44c-1-.92-2.28-2.22-3.71-3.68s-2.71-2.78-3.62-3.76A10.17,10.17,0,0,1,126.6,141.49Z" style="fill:#e0e0e0"></path><path d="M126.44,81.32a11,11,0,0,1,1.44-1.64c.93-1,2.22-2.28,3.67-3.7s2.78-2.71,3.76-3.62A9.93,9.93,0,0,1,137,71a10.87,10.87,0,0,1-1.44,1.62c-.92,1-2.22,2.28-3.67,3.71s-2.79,2.72-3.77,3.62A11.44,11.44,0,0,1,126.44,81.32Z" style="fill:#e0e0e0"></path><path d="M68.8,81.46A11.19,11.19,0,0,1,67.17,80c-1-.92-2.28-2.22-3.71-3.67s-2.7-2.78-3.61-3.76a10.55,10.55,0,0,1-1.41-1.65,11.19,11.19,0,0,1,1.63,1.44c1,.92,2.28,2.22,3.71,3.68s2.71,2.78,3.62,3.76A10.17,10.17,0,0,1,68.8,81.46Z" style="fill:#e0e0e0"></path><path d="M126.44,141.24s0-.1,0-.29,0-.48,0-.84c0-.75,0-1.83,0-3.24,0-2.84,0-7-.05-12.24,0-10.52-.06-25.52-.1-43.48l.19.19L69,81.37h0l.22-.22c0,22.06,0,42.69,0,60.09l-.19-.19,41.63.1,11.69,0,3.09,0h0l-3.06,0-11.64.05L69,141.42h-.19v-.18c0-17.4,0-38,0-60.09v-.21H69l57.47,0h.19v.18c0,18-.07,33.05-.1,43.6,0,5.24,0,9.37,0,12.2,0,1.39,0,2.46,0,3.2,0,.35,0,.62,0,.82S126.44,141.24,126.44,141.24Z" style="fill:#e0e0e0"></path><path d="M84.17,106.26s-1.23,14.87,14.88,14.87C99.05,113.19,92.5,106.93,84.17,106.26Z" style="fill:#ebebeb"></path><path d="M113.65,106.27S98.77,105,98.77,121.14C106.71,121.14,113,114.59,113.65,106.27Z" style="fill:#ebebeb"></path><path d="M98.33,98.12s-12.15,10.91.67,23C105,114.82,104.45,104.91,98.33,98.12Z" style="fill:#e0e0e0"></path><rect x="173.35" y="50.15" width="51.96" height="54.16" style="fill:#e0e0e0"></rect><rect x="169.83" y="50.15" width="51.96" height="54.16" style="fill:#ebebeb"></rect><rect x="176.81" y="57.43" width="37.99" height="39.6" style="fill:#fafafa"></rect><path d="M176.81,97.29a7,7,0,0,1-.95,1.08c-.61.64-1.46,1.5-2.42,2.44s-1.83,1.79-2.48,2.38a6.75,6.75,0,0,1-1.08.93,6.81,6.81,0,0,1,.94-1.07c.61-.64,1.47-1.5,2.43-2.45s1.84-1.78,2.48-2.38A7.32,7.32,0,0,1,176.81,97.29Z" style="fill:#e0e0e0"></path><path d="M214.8,97.2a7,7,0,0,1,1.08,1c.63.61,1.5,1.46,2.44,2.42s1.78,1.83,2.38,2.47a7.84,7.84,0,0,1,.93,1.09,7,7,0,0,1-1.08-.95c-.63-.61-1.5-1.46-2.44-2.42s-1.79-1.84-2.39-2.48A7.38,7.38,0,0,1,214.8,97.2Z" style="fill:#e0e0e0"></path><path d="M214.69,57.54a7.81,7.81,0,0,1,.95-1.08c.61-.64,1.47-1.5,2.42-2.44s1.84-1.78,2.48-2.38a7,7,0,0,1,1.09-.93,8.17,8.17,0,0,1-.95,1.07c-.61.64-1.46,1.5-2.42,2.45s-1.84,1.78-2.48,2.38A7,7,0,0,1,214.69,57.54Z" style="fill:#e0e0e0"></path><path d="M176.71,57.63a7,7,0,0,1-1.08-1c-.64-.6-1.5-1.46-2.44-2.42s-1.78-1.83-2.38-2.47a7,7,0,0,1-.93-1.09,7.32,7.32,0,0,1,1.07.95c.64.61,1.5,1.46,2.45,2.42s1.78,1.84,2.38,2.48A8,8,0,0,1,176.71,57.63Z" style="fill:#e0e0e0"></path><path d="M214.69,97v-.19c0-.13,0-.31,0-.55,0-.49,0-1.21,0-2.14,0-1.87,0-4.6,0-8.07,0-6.93,0-16.81-.06-28.65l.12.13H176.81l.14-.14c0,14.54,0,28.13,0,39.6l-.12-.12,27.44.06,7.7,0,2,0h0l-2,0-7.67,0-27.52.06h-.12V97c0-11.47,0-25.06,0-39.6v-.14h.14l37.88,0h.13v.12c0,11.87,0,21.78-.06,28.73,0,3.46,0,6.18,0,8,0,.92,0,1.63,0,2.12,0,.23,0,.4,0,.53A1.23,1.23,0,0,1,214.69,97Z" style="fill:#e0e0e0"></path><path d="M186.84,74s-.82,9.81,9.8,9.81C196.64,78.55,192.32,74.42,186.84,74Z" style="fill:#ebebeb"></path><path d="M206.27,74s-9.81-.81-9.81,9.81C201.69,83.79,205.82,79.47,206.27,74Z" style="fill:#ebebeb"></path><path d="M196.17,68.62s-8,7.19.44,15.16C200.54,79.62,200.2,73.09,196.17,68.62Z" style="fill:#e0e0e0"></path></g><g id="freepik--Characters--inject-102"><path d="M334.24,218.64c2.19-2.61,6.4-2.75,9.38-1.08s4.91,4.73,6.33,7.83a41.45,41.45,0,0,1-22,55.66c-6.74,2.75-15.05,4.43-18.21,11-1.55,3.21-1.44,6.94-1.19,10.49s.62,7.22-.49,10.61-4.15,6.43-7.71,6.28-6.15-3.22-7-6.53-.36-6.8.18-10.18c-5.69-5-6.43-13.95-3.45-20.88s8.91-12.14,15.09-16.47,12.84-8.05,18.31-13.25,9.74-12.28,9.42-19.82" style="fill:#263238"></path><path d="M293.15,305.57a6.1,6.1,0,0,1-.34-1.36,23.11,23.11,0,0,1-.4-3.8,26.66,26.66,0,0,1,10.52-22,23.53,23.53,0,0,1,3.21-2.08,6.14,6.14,0,0,1,1.27-.58c.06.09-1.76.94-4.26,2.95a27.67,27.67,0,0,0-10.38,21.73C292.78,303.6,293.26,305.56,293.15,305.57Z" style="fill:#455a64"></path><path d="M309.87,282.42s-2.53,3.72-3.37,12.22c-1.56,15.73,19.64,67.14,19.64,67.14L300,419.83l17.32-5.56,29.85-53.84-14.92-62.09Z" style="fill:#ffbe9d"></path><polygon points="419.49 428.27 444.82 418.4 436.29 397.63 385.08 414.14 419.49 428.27" style="fill:#ffbe9d"></polygon><path d="M438.74,421.51l1.39-.55s18.8,19.77,23.36,18.25l-18.81-46.63-15.26,6.9C435.43,405.11,438.72,412.22,438.74,421.51Z" style="fill:#16A34A"></path><g style="opacity:0.6000000000000001"><path d="M436.29,402.2a2,2,0,0,1,1.64-2.2,2,2,0,0,1,2.19,1.61,2.17,2.17,0,0,1-1.75,2.31c-1,.05-2.2-.92-2.09-1.92" style="fill:#fff"></path></g><g style="opacity:0.6000000000000001"><path d="M444.68,392.58,441,394.24l19.37,44.08s1.74,1.71,3.11.89Z" style="fill:#fff"></path></g><path d="M440.32,421.07c.23-.1-.13-1.28.15-2.7s1-2.39.82-2.57-1.35.7-1.66,2.42S440.13,421.2,440.32,421.07Z" style="fill:#263238"></path><path d="M444.32,425.14c.24,0,.23-1.18.88-2.34s1.58-1.79,1.48-2-1.45.16-2.23,1.62S444.1,425.23,444.32,425.14Z" style="fill:#263238"></path><path d="M451.29,425.56c0-.23-1.3-.08-2.31,1s-1.08,2.36-.85,2.38.63-.91,1.47-1.79S451.36,425.8,451.29,425.56Z" style="fill:#263238"></path><path d="M385.8,357.41s-51.62,24.43-61.87,43.94S308,432.84,309.49,436s66.38-11.74,66.38-11.74l27.37-55.95Z" style="fill:#263238"></path><path d="M380.37,374.4s-58.61,38-60.87,40.7-14.45,14.45-10.84,23,10.84,19,33,16.25,82-26.73,82-26.73l-3.11-16.46S440,399,444.69,376.69c3.94-18.64-10.06-37.68-10.06-37.68Z" style="fill:#263238"></path><path d="M434.1,399.22s0,.06-.15.18l-.47.5-1.84,1.89-1.35,1.36-1.73,1.47a50.76,50.76,0,0,1-4.33,3.46l-2.6,1.9c-.93.62-1.93,1.24-2.94,1.89-2,1.35-4.29,2.55-6.65,3.89A154,154,0,0,1,396,423.11a241.87,241.87,0,0,1-30.61,9.48c-4,1-7.23,1.67-9.48,2.13l-2.59.52-.67.12-.24,0,.22-.08.67-.17,2.57-.6c2.23-.53,5.46-1.28,9.43-2.3a260.83,260.83,0,0,0,30.51-9.61,159.82,159.82,0,0,0,16-7.28c2.36-1.32,4.64-2.51,6.65-3.84,1-.64,2-1.24,2.94-1.85l2.62-1.87a53.31,53.31,0,0,0,4.35-3.38l1.75-1.44,1.38-1.32,1.91-1.81.51-.47C434,399.26,434.1,399.21,434.1,399.22Z" style="fill:#455a64"></path><path d="M377,376.61a3.51,3.51,0,0,1-.55.48l-1.66,1.28c-1.44,1.11-3.55,2.69-6.17,4.61-5.24,3.85-12.57,9-20.82,14.57s-15.85,10.3-21.41,13.68c-2.78,1.68-5,3-6.62,3.94l-1.82,1a4.76,4.76,0,0,1-.65.33,3.56,3.56,0,0,1,.6-.42l1.77-1.13,6.52-4.08c5.51-3.45,13.08-8.28,21.32-13.8s15.6-10.66,20.9-14.43l6.26-4.47,1.71-1.21A4.63,4.63,0,0,1,377,376.61Z" style="fill:#455a64"></path><path d="M421.53,351.27a9.54,9.54,0,0,0-2.81,1.17,11.85,11.85,0,0,0-4.6,6.69c-1.14,3.37-.76,7.63-.61,12.31a26.47,26.47,0,0,1-.65,7.37,27.66,27.66,0,0,1-3.2,7.27c-1.4,2.33-2.93,4.49-4.31,6.62a45.33,45.33,0,0,0-3.55,6.39A42.06,42.06,0,0,0,398.46,411a42.88,42.88,0,0,0-.26,8.34c.07,1,.14,1.76.2,2.27a4,4,0,0,1,.06.8,4.78,4.78,0,0,1-.16-.78c-.1-.52-.2-1.28-.3-2.27a39.87,39.87,0,0,1,.1-8.41,41,41,0,0,1,3.26-12,45.7,45.7,0,0,1,3.56-6.48c1.38-2.15,2.91-4.3,4.29-6.61a27.11,27.11,0,0,0,3.16-7.13,26.42,26.42,0,0,0,.66-7.23c0-2.33-.18-4.56-.13-6.66a26.61,26.61,0,0,1,.23-3,17.43,17.43,0,0,1,.64-2.74,12,12,0,0,1,4.84-6.76,7.28,7.28,0,0,1,2.13-.87A3.86,3.86,0,0,1,421.53,351.27Z" style="fill:#fafafa"></path><path d="M430.57,348.67a4,4,0,0,1,.4.75,20.53,20.53,0,0,1,.94,2.23,29.14,29.14,0,0,1,1.69,8.73,35.43,35.43,0,0,1-1.92,13,48.36,48.36,0,0,1-7.83,14.12c-3.54,4.55-7.63,8.22-11.12,11.73a57.06,57.06,0,0,0-8.43,10,27.93,27.93,0,0,0-3.57,8.05,22.75,22.75,0,0,0-.48,2.35,5.22,5.22,0,0,1-.14.83,4.09,4.09,0,0,1,0-.84,20.61,20.61,0,0,1,.38-2.39,27.15,27.15,0,0,1,3.46-8.19,55.48,55.48,0,0,1,8.4-10.18c3.49-3.53,7.54-7.2,11.05-11.71a48.74,48.74,0,0,0,7.79-14,35.81,35.81,0,0,0,2-12.87,30.59,30.59,0,0,0-1.51-8.68c-.33-1-.62-1.75-.85-2.26A6.48,6.48,0,0,1,430.57,348.67Z" style="fill:#16A34A"></path><path d="M338.6,455.21a.68.68,0,0,1-.23,0l-.7,0a8.3,8.3,0,0,1-2.58-.77,10.4,10.4,0,0,1-3.37-2.61,12.29,12.29,0,0,1-2.57-5,12.87,12.87,0,0,1,.27-6.82,19.38,19.38,0,0,1,3.83-6.85,29.24,29.24,0,0,1,6.61-5.61A91.24,91.24,0,0,1,348,423a80.24,80.24,0,0,0,8.05-4.53,28.44,28.44,0,0,0,6.38-5.65A21.27,21.27,0,0,0,367,399.41a17.84,17.84,0,0,0-.85-5.47,10.07,10.07,0,0,0-2.09-3.59,6.19,6.19,0,0,0-2.15-1.51c-.56-.23-.88-.28-.87-.31a3.45,3.45,0,0,1,.91.21,6.06,6.06,0,0,1,2.26,1.47,9.92,9.92,0,0,1,2.21,3.64,17.35,17.35,0,0,1,1,5.56,21.45,21.45,0,0,1-4.62,13.72,28.21,28.21,0,0,1-6.47,5.77,77.57,77.57,0,0,1-8.09,4.57c-2.83,1.45-5.59,2.85-8.09,4.46a28.84,28.84,0,0,0-6.52,5.49,18.85,18.85,0,0,0-3.78,6.67,12.41,12.41,0,0,0-.33,6.6,12,12,0,0,0,2.43,4.92,10.46,10.46,0,0,0,3.24,2.62A10.08,10.08,0,0,0,338.6,455.21Z" style="fill:#fafafa"></path><path d="M377,379.23a1,1,0,0,1,.26.12l.74.42a16.46,16.46,0,0,1,2.58,2,19.9,19.9,0,0,1,5.63,10.39,21.6,21.6,0,0,1,.11,8.24,26.35,26.35,0,0,1-3.37,8.85,34,34,0,0,1-6.69,8,46.25,46.25,0,0,1-9.28,6.32A81,81,0,0,1,356.68,428c-3.41,1.24-6.77,2.2-9.85,3.42a25.19,25.19,0,0,0-8,4.72,14.43,14.43,0,0,0-4.26,6.77,9.84,9.84,0,0,0-.29,3.5,8.85,8.85,0,0,0,.9,3,10.42,10.42,0,0,0,1.54,2.26,9.22,9.22,0,0,0,1.78,1.46,6.56,6.56,0,0,0,3,1c.73.06,1.12,0,1.12,0a4.64,4.64,0,0,1-1.13.06,6.46,6.46,0,0,1-3.09-1,9.13,9.13,0,0,1-1.86-1.46,10.11,10.11,0,0,1-1.62-2.3,9,9,0,0,1-1-3.09,10,10,0,0,1,.27-3.62,14.56,14.56,0,0,1,4.32-7,25.4,25.4,0,0,1,8.12-4.86c3.11-1.24,6.47-2.21,9.85-3.45a81,81,0,0,0,10.24-4.43,46,46,0,0,0,9.19-6.24,33.94,33.94,0,0,0,6.62-7.9,26.22,26.22,0,0,0,3.36-8.68,21.54,21.54,0,0,0-.05-8.1,20.07,20.07,0,0,0-5.41-10.32,19.28,19.28,0,0,0-2.5-2l-.71-.45A.93.93,0,0,1,377,379.23Z" style="fill:#16A34A"></path><path d="M407.93,432.18s-.11.16-.37.44a8,8,0,0,1-1.27,1.06,12,12,0,0,1-5.75,1.85,18.88,18.88,0,0,1-4.2-.15,43.28,43.28,0,0,1-4.7-1c-3.26-.84-6.83-2-10.69-1.83a21.73,21.73,0,0,0-5.53.83,24.2,24.2,0,0,0-4.87,1.91,25.64,25.64,0,0,0-7,5.38,24.33,24.33,0,0,0-3.43,4.9c-.63,1.27-.95,2-1,2a2.52,2.52,0,0,1,.18-.55c.14-.34.31-.88.62-1.52a23.27,23.27,0,0,1,3.34-5.05,25,25,0,0,1,7.05-5.56,24.24,24.24,0,0,1,4.95-2,21.81,21.81,0,0,1,5.66-.86c4-.14,7.59,1,10.82,1.89a46.41,46.41,0,0,0,4.64,1,18.91,18.91,0,0,0,4.11.21,12.29,12.29,0,0,0,5.67-1.65A19.09,19.09,0,0,0,407.93,432.18Z" style="fill:#16A34A"></path><path d="M356.59,260.11c0,.06-.6.17-1.63.59a13.71,13.71,0,0,0-3.93,2.47,19.81,19.81,0,0,0-4.27,5.41,19.46,19.46,0,0,0-2.4,8.06A42.83,42.83,0,0,0,345.94,292a28.19,28.19,0,0,0,1.7,4.37,17,17,0,0,1,.77,1.56s-.11-.12-.28-.36-.41-.6-.67-1.1a24.4,24.4,0,0,1-1.87-4.36,40.79,40.79,0,0,1-1.75-15.48,19.63,19.63,0,0,1,2.5-8.24,19.33,19.33,0,0,1,4.45-5.46,12.76,12.76,0,0,1,4.1-2.38,7.59,7.59,0,0,1,1.25-.34A1.27,1.27,0,0,1,356.59,260.11Z" style="fill:#263238"></path><path d="M434.63,339c-1.17-4.41-37.14-28.48-37.14-28.48s-30.8-44.8-35.13-49.93l-28-1.87c3.41-.54-22.68,21.09-22.68,21.09s-.45,31.61,8.58,46.06S364,345.17,364,345.17l13,31.44Z" style="fill:#ffbe9d"></path><path d="M333.75,258.12l-.15.25C333.55,258.34,333.86,258.1,333.75,258.12Z" style="fill:#16A34A"></path><path d="M365,260.92l-30.88-3a177.81,177.81,0,0,0-18,15.59,43.37,43.37,0,0,0-6.76,9.92s1.91,27.19,10.94,41.64,40.8,19.94,40.8,19.94l36.42-34.52S369.28,266.05,365,260.92Z" style="fill:#16A34A"></path><path d="M399.59,346.88a16.67,16.67,0,0,1,.09,3.14,34.29,34.29,0,0,1-.9,7.57,17.06,17.06,0,0,1-3.35,6.84,11.14,11.14,0,0,1-1.66,1.63,2.63,2.63,0,0,1-.71.46c-.06-.08.92-.79,2.09-2.32a18.82,18.82,0,0,0,3.13-6.74,42.65,42.65,0,0,0,1-7.45A22.67,22.67,0,0,1,399.59,346.88Z" style="fill:#eb996e"></path><path d="M382.07,361.78c-.13.07-.58-.48-1-1.22s-.68-1.4-.55-1.47.57.47,1,1.21S382.19,361.71,382.07,361.78Z" style="fill:#eb996e"></path><path d="M348.5,302.94a31.22,31.22,0,0,1-5.29,2.09,31.79,31.79,0,0,1-5.46,1.6,30.79,30.79,0,0,1,5.29-2.09A31.79,31.79,0,0,1,348.5,302.94Z" style="fill:#fafafa"></path><path d="M348.51,306.87a15.87,15.87,0,0,1-3.83,1.34,15.64,15.64,0,0,1-4,.83,32,32,0,0,1,7.79-2.17Z" style="fill:#fafafa"></path><path d="M360.17,326.93s-.18.22-.56.56a13.74,13.74,0,0,1-1.74,1.29,19.28,19.28,0,0,1-13.74,2.64,13.29,13.29,0,0,1-2.09-.54,2.77,2.77,0,0,1-.73-.32c0-.09,1.1.25,2.88.5a21.26,21.26,0,0,0,13.49-2.6C359.24,327.57,360.11,326.85,360.17,326.93Z" style="fill:#263238"></path><g style="opacity:0.30000000000000004"><path d="M379,327.3a31.23,31.23,0,0,0,7.52-18c.5-6.62-3-15-6.53-20.61,0,0-1,26.22-1,38.65"></path></g><path d="M319.18,201.86c-1.09-2.62-4.38-3.54-7.21-3.41s-5.66,1-8.46.49c-2.47-.42-4.64-1.85-7-2.75a17.44,17.44,0,0,0-23.5,19.3c.73,4.1,3.31,8.17,7.31,9.32,4.64,1.33,9.35-1.54,13.27-4.36s8.42-5.88,13.16-5c2.85.55,5.21,2.48,7.57,4.18s5.09,3.31,8,3.05,5.64-3.28,4.54-6" style="fill:#263238"></path><path d="M319.64,203.36c.68,2.29,3.12,3.53,5.37,4.36s4.74,1.66,6,3.71c1.45,2.39.72,5.71,2.38,8,1.05,1.43,2.83,2.1,4.22,3.2A9.91,9.91,0,0,1,341,229c.33,2.47,1.49,7.8.74,10.18A38.46,38.46,0,0,1,329.32,257c-5.5,4.16-11.87,7-18.32,9.45-5.29,2-11.09,4.87-18.55-.28-3.86-2.67-7.14-7-10.17-10.63-2.6-3.09-5.18-6.5-5.71-10.5-.31-2.34.11-4.72-.21-7.06-.4-2.91-1.91-5.54-2.8-8.34a20.11,20.11,0,0,1,19.61-26.19" style="fill:#263238"></path><path d="M277.91,232.74c-2.82-7.6-2-18.84,5.74-21.34L309.22,207a4.74,4.74,0,0,1,5.83,2.66l22.24,56.52.17,0s1.77,18-15.54,20c-3.43.4-6.28-2.27-8.39-5.39l-.15.09-.54-1.15a39.74,39.74,0,0,1-3.49-7.56h0c-2.05-4.45-2.87-6.29-2.85-6.25s-10.14,2.64-17.58-8.8C285.22,251.35,281.05,241.18,277.91,232.74Z" style="fill:#ffbe9d"></path><path d="M283.07,237.79a1.73,1.73,0,0,0,2.23.92,1.66,1.66,0,0,0,1-2.15,1.73,1.73,0,0,0-2.23-.92A1.65,1.65,0,0,0,283.07,237.79Z" style="fill:#263238"></path><path d="M281.34,235.06c.28.12,1.09-1.29,2.79-2.05s3.32-.46,3.41-.75c0-.13-.31-.41-1-.56a4.68,4.68,0,0,0-2.85.34,4.62,4.62,0,0,0-2.11,1.89C281.21,234.56,281.2,235,281.34,235.06Z" style="fill:#263238"></path><path d="M299.58,231.71a1.74,1.74,0,0,0,2.24.92,1.65,1.65,0,0,0,1-2.15,1.73,1.73,0,0,0-2.23-.92A1.66,1.66,0,0,0,299.58,231.71Z" style="fill:#263238"></path><path d="M298.79,228.94c.29.12,1.09-1.3,2.79-2.05s3.33-.46,3.42-.75c.05-.13-.31-.41-1-.57a4.76,4.76,0,0,0-2.85.35,4.57,4.57,0,0,0-2.11,1.89C298.67,228.44,298.66,228.89,298.79,228.94Z" style="fill:#263238"></path><path d="M298.71,245.21a12.33,12.33,0,0,0-3,.74c-.45.14-.9.24-1.11,0a2.42,2.42,0,0,1-.28-1.42c-.06-1.23-.13-2.52-.19-3.87-.32-5.5-.75-9.94-1-9.93s-.15,4.48.17,10c.09,1.35.17,2.64.25,3.87a2.75,2.75,0,0,0,.53,1.81,1.2,1.2,0,0,0,1,.31,3.33,3.33,0,0,0,.78-.22A11.9,11.9,0,0,0,298.71,245.21Z" style="fill:#263238"></path><path d="M306.5,265.84A34.25,34.25,0,0,0,321,254.1s-.23,10.24-13.07,14.58Z" style="fill:#eb996e"></path><path d="M301.25,249a3.38,3.38,0,0,1,2.24-2.36,3.05,3.05,0,0,1,2.39.17,1.94,1.94,0,0,1,1,2,2.24,2.24,0,0,1-2,1.55,7.14,7.14,0,0,1-2.74-.32,2.13,2.13,0,0,1-.71-.29.6.6,0,0,1-.28-.63" style="fill:#eb996e"></path><path d="M304.24,244.16c-.29.11.53,2-.47,4s-3,2.68-2.94,2.94.59.17,1.43-.18a5,5,0,0,0,2.51-2.36,4.37,4.37,0,0,0,.27-3.27C304.77,244.46,304.36,244.09,304.24,244.16Z" style="fill:#263238"></path><path d="M295.92,225.4c.38.39,2-.59,4.08-1.24s3.95-.82,4-1.35c0-.25-.44-.56-1.29-.72a7.43,7.43,0,0,0-6.18,2C296,224.69,295.75,225.21,295.92,225.4Z" style="fill:#263238"></path><path d="M280.2,229.86c.47.25,1.46-.67,2.86-1.32s2.71-.89,2.81-1.42c0-.25-.33-.55-1-.69a4.56,4.56,0,0,0-4.57,2.21C280,229.26,280,229.73,280.2,229.86Z" style="fill:#263238"></path><path d="M336,243.58a12,12,0,0,1-18.41-6.25c-1-3.19-.72-7-3.05-9.39-3.08-3.16-8.9-1.94-12-5.09-1.8-1.82-2.21-4.71-4.1-6.45s-4.43-1.84-6.83-1.66-4.86.66-7.2.09-4.57-2.64-4.3-5a127.55,127.55,0,0,1,29.81-5.52c2.34-.15,4.86-.2,6.84,1.05s3.14,3.8,4.05,6.11q6.64,16.91,13.31,33.83" style="fill:#263238"></path><path d="M337.07,248.16a1,1,0,0,0,.15-.22q.13-.27.36-.66c.3-.59.76-1.45,1.28-2.6a24,24,0,0,0,1.52-4.34,12.4,12.4,0,0,0,0-6.1,8.42,8.42,0,0,0-4.48-5.76,29.11,29.11,0,0,0-4-1.16,7.28,7.28,0,0,1-3.61-2c-2-2.1-2.93-5.19-4.61-8a18.21,18.21,0,0,0-7.29-6.91,12.5,12.5,0,0,0-5-1.35,25,25,0,0,0-5,.48,11,11,0,0,1-4.61-.17,16.13,16.13,0,0,1-4.09-1.79c-2.53-1.5-4.72-3.33-7.07-4.62a15.49,15.49,0,0,0-3.58-1.48,9.94,9.94,0,0,0-3.57-.28,6.71,6.71,0,0,0-5.22,3,5.5,5.5,0,0,0-.29,4.55,4.06,4.06,0,0,0,1.87,2.21,2.46,2.46,0,0,0,.72.25.72.72,0,0,0,.26,0l-.24-.1a2.43,2.43,0,0,1-.68-.3,4,4,0,0,1-1.72-2.18,5.31,5.31,0,0,1,.36-4.3,6.37,6.37,0,0,1,5-2.74,9.6,9.6,0,0,1,3.42.3,15.1,15.1,0,0,1,3.45,1.47c2.29,1.28,4.45,3.11,7,4.66a16.49,16.49,0,0,0,4.23,1.87,11.54,11.54,0,0,0,4.83.2,24.09,24.09,0,0,1,4.85-.47,12.16,12.16,0,0,1,4.75,1.29,17.68,17.68,0,0,1,7.05,6.68c1.65,2.71,2.56,5.85,4.72,8.08a7.92,7.92,0,0,0,3.86,2.17,28,28,0,0,1,3.9,1.1,8.06,8.06,0,0,1,4.28,5.42,12.24,12.24,0,0,1,.05,5.92,25.19,25.19,0,0,1-1.41,4.32c-.49,1.15-.91,2-1.18,2.64A7.84,7.84,0,0,0,337.07,248.16Z" style="fill:#455a64"></path><path d="M332.13,213.29a1.78,1.78,0,0,1,2.37.33,4.85,4.85,0,0,1,1,2.43,6.18,6.18,0,0,0,.84,2.5,14.37,14.37,0,0,0,2.46,2c.8.7,1.35,2,.67,2.78a1.76,1.76,0,0,1-1.77.45,4.51,4.51,0,0,1-1.64-1c-2.31-1.9-4.38-4.5-4.35-7.49a2.33,2.33,0,0,1,1.15-2.24" style="fill:#16A34A"></path><path d="M337.68,223.75s.14,0,.4.07a7.18,7.18,0,0,1,1.1.39,8,8,0,0,1,3.21,2.8,16.4,16.4,0,0,1,2.33,5.88,18.66,18.66,0,0,1,0,7.74,23,23,0,0,1-2.66,7.28,14.35,14.35,0,0,1-4.38,4.56,12,12,0,0,1-3.91,1.71,8.53,8.53,0,0,1-1.14.19,1.28,1.28,0,0,1-.41,0,14,14,0,0,0,9.43-6.72,23.49,23.49,0,0,0,2.56-7.13,18.77,18.77,0,0,0,0-7.54,16.52,16.52,0,0,0-2.17-5.77,8.21,8.21,0,0,0-3-2.83C338.21,223.93,337.66,223.8,337.68,223.75Z" style="fill:#455a64"></path><path d="M161.71,382.59s41.46-85.65,64.88-90.88c22-4.93,37.83,9.8,42.9,23.77,3.79,10.45,38.51,88.45,38.51,88.45l-20.45,27.54-49.13-65s-10,55.35-24.66,77.16c-5.74,8.55-51.19,22.37-70.6,3.86S161.71,382.59,161.71,382.59Z" style="fill:#263238"></path><path d="M189.63,287.17s-9.38-10.24-8.58-12.21a11.81,11.81,0,0,1,2.33-3.71,4.2,4.2,0,0,1-1.38-4.06c.63-2.42,1.54-3.62,3.6-3.58,1.74,0,1.35-2.59,3.21-3.21s5.08,2.18,5.08,2.18l.83-.69a4.93,4.93,0,0,1,3.81-1.12,4.2,4.2,0,0,1,1.79.57,3.93,3.93,0,0,0,2.21.34,3.69,3.69,0,0,1,3.51,1.41l2.68,3.48s3.52,8.41.28,17c-3,8-3.37,7.75-3.37,7.75Z" style="fill:#a36957"></path><path d="M107,341.33s23.32,17.21,37,22.54,33-3.16,37-7.22,26.41-69.07,26.41-69.07l-19.84-2.79-33,35.2-30.4-10.67Z" style="fill:#a36957"></path><path d="M192.34,284.21a5.34,5.34,0,0,0,1.18-1.62,3.61,3.61,0,0,0,.22-2.21,3.73,3.73,0,0,0-1.58-2.33l-1-.63,1.13.22a6.38,6.38,0,0,0,6.12-2.45,1.92,1.92,0,0,0,.41-1.21c0-.39-.36-.56-.83-.65l-2.68-.64-4.53-1.1-3-.78a5.24,5.24,0,0,1-1.1-.36,4.37,4.37,0,0,1,1.14.16l3.09.62,4.56,1,2.69.6a1.94,1.94,0,0,1,.76.29,1.17,1.17,0,0,1,.47.8,2.42,2.42,0,0,1-.51,1.58,6.73,6.73,0,0,1-6.63,2.58l.17-.41a4.1,4.1,0,0,1,1.7,2.64,3.84,3.84,0,0,1-.35,2.39,3.64,3.64,0,0,1-.95,1.22C192.53,284.15,192.36,284.23,192.34,284.21Z" style="fill:#7c3b29"></path><path d="M187.32,270.6s-.52-.1-1-.72a4.94,4.94,0,0,1-1-2.85,6.16,6.16,0,0,1,.62-2.93c.35-.69.69-1,.74-1s-.15.45-.4,1.14a7.65,7.65,0,0,0-.44,2.77,5.64,5.64,0,0,0,.76,2.66C187,270.27,187.36,270.52,187.32,270.6Z" style="fill:#7c3b29"></path><path d="M192.29,271.74a2.85,2.85,0,0,1-.81-1.25,6.19,6.19,0,0,1-.28-3.6,7.26,7.26,0,0,1,1.64-3.21,3.17,3.17,0,0,1,1.15-.95c.06.07-.34.46-.86,1.18a8.24,8.24,0,0,0-1.42,3.09,6.74,6.74,0,0,0,.12,3.37C192.08,271.21,192.37,271.7,192.29,271.74Z" style="fill:#7c3b29"></path><path d="M196,277.33a7.55,7.55,0,0,0,3.18,2.37,8,8,0,0,0,1.87.73,2.47,2.47,0,0,0,2.06-.32,2.36,2.36,0,0,0,.77-2.12,5.15,5.15,0,0,0-1-2.43,21.36,21.36,0,0,1-2.75-4.71,9.69,9.69,0,0,1-.69-4.42,7,7,0,0,1,.88-2.88,2.65,2.65,0,0,1,.68-.87,8.34,8.34,0,0,0-1.19,3.78,9.71,9.71,0,0,0,.77,4.22,21.89,21.89,0,0,0,2.73,4.59,5.61,5.61,0,0,1,1.12,2.67,2.85,2.85,0,0,1-1,2.56,2.94,2.94,0,0,1-2.45.35,8,8,0,0,1-1.93-.82,12.53,12.53,0,0,1-1.49-.86,4.62,4.62,0,0,1-.95-.9A2.83,2.83,0,0,1,196,277.33Z" style="fill:#7c3b29"></path><path d="M203.34,282.86a11.25,11.25,0,0,0-8.36,3.52s.19-.53.79-1.18a8.4,8.4,0,0,1,2.82-1.94,8.31,8.31,0,0,1,3.36-.65A2.71,2.71,0,0,1,203.34,282.86Z" style="fill:#7c3b29"></path><path d="M197.56,293.14c0,.06-.49.24-1.36.24a6.6,6.6,0,0,1-5.56-3.34,2.54,2.54,0,0,1-.43-1.32c.08,0,.28.45.75,1.12a7.61,7.61,0,0,0,2.29,2.15,7.5,7.5,0,0,0,3,1A8.47,8.47,0,0,1,197.56,293.14Z" style="fill:#7c3b29"></path><polygon points="85.38 288.21 106.73 293.08 142.81 314.28 131.97 327.41 84.11 302.54 85.38 288.21" style="fill:#16A34A"></polygon><path d="M50.46,256.63c-4.81-8.34-7-23.65-2.5-32.45s14.25-15.49,23.57-18.81a8.21,8.21,0,0,1,4.84-.57c1.6.44,3,2.09,2.51,3.68a20.86,20.86,0,0,1,5.73-3.73,7,7,0,0,1,6.56.56c1.84,1.37,2.49,4.33,1,6a7.42,7.42,0,0,1,10.57,8.57,23.57,23.57,0,0,1-4.42,7.85c-1.77,2.11-1.85,4.06-1.16,6.73" style="fill:#263238"></path><path d="M88.94,300.36c-.49-4.1-2.06-16.36-2.07-16.53,0,0,13.73-2.46,13.58-16.23-.07-6.66-1.34-20.35-2.63-32.72a25.65,25.65,0,0,0-26.12-23l-1.33,0c-14.3,1.17-21.3,14-19.74,28.24l5.18,54.61a16.07,16.07,0,0,0,17.35,14.49h0C82.21,308.49,88.94,300.36,88.94,300.36Z" style="fill:#a36957"></path><path d="M87.11,283.78a33.54,33.54,0,0,1-18.29-4.84s4.58,8.34,18.29,6.79Z" style="fill:#7c3b29"></path><path d="M95.45,243.85c-.24.26-1.75-.8-3.87-.75s-3.64,1.15-3.88.9.13-.59.79-1.09a5.4,5.4,0,0,1,3.1-1,5.17,5.17,0,0,1,3.08.92C95.34,243.28,95.57,243.73,95.45,243.85Z" style="fill:#263238"></path><path d="M75.4,246.14c-.23.26-1.75-.8-3.87-.75s-3.64,1.15-3.87.9.12-.58.78-1.09a5.42,5.42,0,0,1,3.1-1,5.23,5.23,0,0,1,3.09.92C75.29,245.57,75.52,246,75.4,246.14Z" style="fill:#263238"></path><path d="M82.27,258.08a14,14,0,0,1,3.43-.7c.54-.07,1-.19,1.13-.56a2.71,2.71,0,0,0-.4-1.59c-.54-1.29-1.1-2.65-1.69-4.08-2.36-5.8-4.08-10.58-3.84-10.68s2.33,4.54,4.69,10.35c.56,1.43,1.11,2.8,1.62,4.1a3.12,3.12,0,0,1,.33,2.12,1.34,1.34,0,0,1-.87.81,4.29,4.29,0,0,1-.91.15A14,14,0,0,1,82.27,258.08Z" style="fill:#263238"></path><path d="M65,236c.1-.61,2.23-.71,4.63-1.43s4.25-1.75,4.66-1.3c.19.22-.06.82-.76,1.51a8.43,8.43,0,0,1-7.08,2.07C65.47,236.65,64.94,236.28,65,236Z" style="fill:#263238"></path><path d="M87,233.51c.4-.46,1.83.11,3.58.22s3.25-.17,3.56.35c.14.25-.12.72-.79,1.15a5.18,5.18,0,0,1-5.75-.47C87,234.24,86.8,233.74,87,233.51Z" style="fill:#263238"></path><path d="M52,250.33c-.23-.1-9.52-2.58-9,6.82s9.85,7,9.85,6.68S52,250.33,52,250.33Z" style="fill:#a36957"></path><path d="M49.77,260.42s-.15.13-.42.27a1.64,1.64,0,0,1-1.23.09c-1-.31-1.93-1.84-2.07-3.53a5.36,5.36,0,0,1,.33-2.37,1.89,1.89,0,0,1,1.16-1.33.84.84,0,0,1,1,.4c.14.25.09.44.14.46s.2-.17.1-.56a1.07,1.07,0,0,0-.4-.57,1.24,1.24,0,0,0-.92-.18,2.28,2.28,0,0,0-1.63,1.55,5.46,5.46,0,0,0-.43,2.65c.17,1.89,1.24,3.61,2.62,3.93a1.72,1.72,0,0,0,1.48-.33C49.77,260.65,49.81,260.44,49.77,260.42Z" style="fill:#7c3b29"></path><path d="M102.86,216.79c1.76,12.13-13,18-20,11.58-3.22-3-6.09-6.79-10.32-8a11.15,11.15,0,0,0-8.52,1.37l-.08,0c-3.77,2.23-5.81,6.84-6.18,11.2-.51,6.07.75,11.34-.52,17a3.76,3.76,0,0,1-1,2.2c-1.1.88-2.78.25-3.77-.74-1.59-1.59-2.25-3.88-2.7-6.08a38.68,38.68,0,0,1-.26-15.27,26.41,26.41,0,0,1,6.93-13.48,25,25,0,0,1,17.37-7,30.77,30.77,0,0,1,17.94,5.95A18,18,0,0,1,97.69,222" style="fill:#263238"></path><path d="M92.53,210.62a2.73,2.73,0,0,1,1.31,0,6.53,6.53,0,0,1,3.2,1.56,8,8,0,0,1,2.59,4.62,9,9,0,0,1-1.46,6.29,11.86,11.86,0,0,1-4.88,4.25,15.92,15.92,0,0,1-5.06,1.41,19.16,19.16,0,0,1-3.53.09,4.25,4.25,0,0,1-1.28-.19c0-.14,1.84,0,4.74-.4A16.87,16.87,0,0,0,93,226.72a11.59,11.59,0,0,0,4.56-4,8.55,8.55,0,0,0,1.41-5.8,7.67,7.67,0,0,0-2.28-4.34,6.69,6.69,0,0,0-2.91-1.66C93,210.68,92.53,210.69,92.53,210.62Z" style="fill:#455a64"></path><path d="M86,206.65s.34-.12.91.11a3,3,0,0,1,1.58,1.93,5.53,5.53,0,0,1-.53,3.64,15.53,15.53,0,0,1-2.38,3.74,16.17,16.17,0,0,1-6.49,4.63,7.69,7.69,0,0,1-3.22.73c0-.13,1.21-.36,3-1.2A18,18,0,0,0,85,215.6a16.78,16.78,0,0,0,2.33-3.55,5.21,5.21,0,0,0,.63-3.24,2.9,2.9,0,0,0-1.21-1.8C86.32,206.73,86,206.71,86,206.65Z" style="fill:#455a64"></path><path d="M86.3,264c0,.14-2-.47-4.35-.94s-4.39-.63-4.39-.78a11.73,11.73,0,0,1,4.49.27A11.83,11.83,0,0,1,86.3,264Z" style="fill:#263238"></path><path d="M60.09,234.77c-.18,1-.33,2-.43,3-.06.55,0,1.29.58,1.38s.85-.52.93-1a4.32,4.32,0,0,0-1-3.47" style="fill:#f5f5f5"></path><path d="M62.57,230.2c-.17.94-.31,1.89-.41,2.84,0,.53,0,1.23.56,1.32s.8-.5.88-1a4.14,4.14,0,0,0-.93-3.31" style="fill:#f5f5f5"></path><polygon points="292.19 400.15 310.49 428.99 286.39 443.68 246.83 388.83 292.19 400.15" style="fill:#a36957"></polygon><path d="M306.64,421.32l1,1.59s33.75-6,37.24-1.08L291.12,455l-10.31-18.34C291.09,435.45,299.71,430.7,306.64,421.32Z" style="fill:#16A34A"></path><g style="opacity:0.6000000000000001"><path d="M289.78,439a2.6,2.6,0,0,0,0,3.45,2.49,2.49,0,0,0,3.42,0,2.73,2.73,0,0,0-.05-3.65c-1-.79-2.92-.7-3.55.39" style="fill:#fff"></path></g><g style="opacity:0.6000000000000001"><path d="M291.12,455l-2.48-4.42,52.43-30.19s3-.44,3.81,1.41Z" style="fill:#fff"></path></g><path d="M307.92,422.94c.15.27-1.08,1.2-1.86,2.84S305.29,429,305,429s-.85-1.72.12-3.69S307.83,422.67,307.92,422.94Z" style="fill:#263238"></path><path d="M315,421.79c.22.22-.65,1.37-.85,3s.26,3,0,3.14-1.35-1.23-1.05-3.29S314.84,421.55,315,421.79Z" style="fill:#263238"></path><path d="M322.37,426.56c-.21.21-1.38-.88-1.59-2.73s.66-3.19.9-3,0,1.39.16,2.91S322.61,426.38,322.37,426.56Z" style="fill:#263238"></path><path d="M147,382.59s41.46-85.65,64.88-90.88c22-4.93,37.83,9.8,42.9,23.77,3.8,10.45,46.06,96.57,46.06,96.57l-28,19.42-49.13-65s-10.05,55.35-24.67,77.16c-5.73,8.55-51.18,22.37-70.6,3.86S147,382.59,147,382.59Z" style="fill:#263238"></path><path d="M222.11,330.16a34.35,34.35,0,0,0-1.76,5.21,27.5,27.5,0,0,0-.61,5.92,47.9,47.9,0,0,0,.6,7.29c.78,5.14,2,9.72,2.73,13.06.38,1.67.69,3,.87,4a7.85,7.85,0,0,1,.23,1.47,8.25,8.25,0,0,1-.43-1.42c-.27-1-.61-2.34-1-3.92a133.86,133.86,0,0,1-2.89-13.08,46.09,46.09,0,0,1-.56-7.37,26.29,26.29,0,0,1,.73-6c.11-.42.2-.82.31-1.19s.26-.71.38-1,.23-.61.33-.89.25-.5.36-.72A8.23,8.23,0,0,1,222.11,330.16Z" style="fill:#455a64"></path><path d="M212.55,327.35a31.62,31.62,0,0,0-.33,6c.14,3.73,1.49,8.75,3.47,14.1s4.27,10,5.76,13.43c.77,1.71,1.37,3.1,1.75,4.08a9.1,9.1,0,0,1,.55,1.54,9.61,9.61,0,0,1-.73-1.46l-1.9-4c-1.58-3.39-4-8-5.92-13.41s-3.3-10.46-3.35-14.26a20.65,20.65,0,0,1,.3-4.45,10.8,10.8,0,0,1,.26-1.18C212.48,327.48,212.53,327.35,212.55,327.35Z" style="fill:#455a64"></path><path d="M136.13,402.56a4.36,4.36,0,0,1,.57.87,18.05,18.05,0,0,1,1.23,2.52,25.53,25.53,0,0,1,1.26,4,26.42,26.42,0,0,1,.31,10.18,26.4,26.4,0,0,1-1,4.06,19.22,19.22,0,0,1-1.08,2.59,4.55,4.55,0,0,1-.51.9c-.09-.05.56-1.36,1.23-3.61a27.21,27.21,0,0,0,.89-4,31.81,31.81,0,0,0,.3-5,32.32,32.32,0,0,0-.6-5,29.13,29.13,0,0,0-1.13-4C136.78,403.88,136.05,402.61,136.13,402.56Z" style="fill:#455a64"></path><path d="M212.64,339.11a1.8,1.8,0,0,1-.15.38l-.49,1.07c-.45,1-1.09,2.34-1.9,4.1-1.66,3.56-4,8.75-6.66,15.24s-5.66,14.31-8.64,23.11-5.86,18.59-8.45,29a67.91,67.91,0,0,1-2.31,7.62,27.39,27.39,0,0,1-3.68,6.83,29.08,29.08,0,0,1-11.73,8.6,51.13,51.13,0,0,1-24.22,4,42.71,42.71,0,0,1-9.31-1.85l-1.91-.68c-.61-.22-1.17-.51-1.73-.74a28.24,28.24,0,0,1-2.92-1.48,28.71,28.71,0,0,1-3.76-2.52l-.92-.74a1.92,1.92,0,0,1-.3-.27,3.66,3.66,0,0,1,.33.23l1,.69a32.7,32.7,0,0,0,3.8,2.44,29.88,29.88,0,0,0,2.93,1.42c.55.23,1.1.51,1.72.72l1.9.65a43.07,43.07,0,0,0,9.25,1.77,51.16,51.16,0,0,0,24-4.11A28.61,28.61,0,0,0,180,426.14c3.06-4,4.59-9.11,5.9-14.27,2.59-10.41,5.52-20.21,8.5-29s6-16.61,8.75-23.09,5.1-11.65,6.81-15.19c.84-1.78,1.54-3.13,2-4.06l.53-1.05C212.57,339.23,212.63,339.11,212.64,339.11Z" style="fill:#455a64"></path><path d="M219.5,342.54s-.06.4-.5.85a2.94,2.94,0,0,1-2.23.85,3.75,3.75,0,0,1-2.23-.86c-.47-.42-.58-.82-.52-.84s.27.25.75.55a4.42,4.42,0,0,0,2,.63,3.07,3.07,0,0,0,2-.61C219.21,342.78,219.42,342.48,219.5,342.54Z" style="fill:#455a64"></path><path d="M276.92,427.48a15.92,15.92,0,0,0-1.6-3.75,20.56,20.56,0,0,0-2.93-3.78c-1.28-1.36-2.89-2.77-4.67-4.32a60.83,60.83,0,0,1-5.62-5.34c-1.9-2.05-3.77-4.37-5.67-6.86-3.75-5-7.86-10.52-12.06-16.39s-8-11.59-11.3-16.94a164.52,164.52,0,0,1-8-14.59,96.19,96.19,0,0,1-5.69-14.22,1,1,0,0,1,.12.25c.07.19.17.43.29.73l1.08,2.85c.51,1.23,1.13,2.72,1.84,4.45s1.63,3.67,2.69,5.78c2.08,4.24,4.77,9.18,8,14.5s7.11,11,11.31,16.89,8.3,11.39,12,16.4c1.88,2.49,3.73,4.81,5.59,6.86a65,65,0,0,0,5.55,5.35,63.69,63.69,0,0,1,4.64,4.4,20.74,20.74,0,0,1,2.9,3.87c.34.58.56,1.13.78,1.59s.32.89.42,1.23.13.57.18.77A.76.76,0,0,1,276.92,427.48Z" style="fill:#455a64"></path><path d="M301.54,411.51a2.55,2.55,0,0,1-.21-.32l-.57-1c-.5-.89-1.22-2.14-2.14-3.75-1.82-3.28-4.43-8-7.51-14a516.34,516.34,0,0,1-21.51-47.73c-.92-2.39-1.83-4.74-2.72-7.07s-1.7-4.64-2.66-6.84a126.06,126.06,0,0,0-6.46-12.27c-2.23-3.82-4.32-7.49-6.07-11a29.76,29.76,0,0,0-6.62-8.57,30.84,30.84,0,0,0-13.85-7.21,28.66,28.66,0,0,0-4.26-.59l-1.12-.06a1.42,1.42,0,0,1-.38,0H227a27,27,0,0,1,4.29.51,30.52,30.52,0,0,1,14.06,7.13,29.88,29.88,0,0,1,6.75,8.64c1.77,3.52,3.86,7.16,6.1,11a121.39,121.39,0,0,1,6.51,12.31c1,2.22,1.79,4.54,2.68,6.86l2.73,7.06c7.44,19,15.28,35.82,21.35,47.76,3,6,5.6,10.75,7.36,14.05.88,1.63,1.57,2.9,2.05,3.8l.53,1A1.77,1.77,0,0,1,301.54,411.51Z" style="fill:#455a64"></path><path d="M55.29,289.31s-19.75,33.34-10.92,57.62,20.62,32,27.25,48.74,27.59,42.74,40,50.24,21,2.75,21,2.75,2.82-56.53,25.34-82.14c0,0-32-26.93-37.27-34.44s-31.35-34.45-31.35-34.45Z" style="fill:#16A34A"></path><g style="opacity:0.2"><path d="M117.46,364.81c-3-7.28-9.56-12.48-16.19-16.74s-13.74-8-19.16-13.75L69.83,345.49a29.56,29.56,0,0,1,9.61,11.94c1.69,3.85,2.58,8.11,5,11.54s7.19,5.81,10.87,3.79c-.57,3.78-7.79,8.2-6.69,10.4,2.36.32,4.53-2.52,6.45-3.93s3.18-4.33,5-5.11c-.87,1.57-2.34,4.69-3.2,6.26,4.69-4,10.77-8.81,16.87-9.85,1.48-.25,3.2-.52,4-1.81S118,366.06,117.46,364.81Z"></path></g><path d="M95.51,382.63a4.59,4.59,0,0,1,.45-1,10.77,10.77,0,0,1,.63-1.11,15.6,15.6,0,0,1,.94-1.4,24.26,24.26,0,0,1,2.91-3.31,25.4,25.4,0,0,1,9.18-5.58,24.49,24.49,0,0,1,4.28-1.05,16.63,16.63,0,0,1,1.68-.19,9.83,9.83,0,0,1,1.27-.05,5.25,5.25,0,0,1,1.09.06c0,.11-1.55.09-4,.54a26.77,26.77,0,0,0-4.18,1.15A29.12,29.12,0,0,0,105,373a29.72,29.72,0,0,0-4.23,3.18,26.54,26.54,0,0,0-2.94,3.18C96.31,381.3,95.6,382.68,95.51,382.63Z" style="fill:#263238"></path><path d="M87.53,383.93a5.55,5.55,0,0,1,.92-.77c.61-.46,1.48-1.13,2.55-2a101.21,101.21,0,0,0,8-7,103.53,103.53,0,0,0,7.18-7.85l2-2.52a5.1,5.1,0,0,1,.78-.89,5,5,0,0,1-.62,1c-.42.64-1.07,1.54-1.9,2.63a77.78,77.78,0,0,1-15.25,14.93c-1.1.81-2,1.44-2.66,1.85A5.4,5.4,0,0,1,87.53,383.93Z" style="fill:#263238"></path><path d="M110.49,440.48a3.17,3.17,0,0,1-.38-.43c-.22-.29-.59-.71-1-1.29a37.24,37.24,0,0,1-3.1-5.12,40.1,40.1,0,0,1,1-38.06,37.82,37.82,0,0,1,3.36-5c.43-.56.81-.95,1.06-1.24s.38-.41.4-.4-.46.64-1.3,1.77a41.6,41.6,0,0,0-1.2,47.9A20.27,20.27,0,0,1,110.49,440.48Z" style="fill:#263238"></path><path d="M91.57,351.73s23.32,17.21,37,22.54,33-3.16,37.05-7.22,13.57-84.18,13.57-84.18l-18-6.8-22.06,54.32-20.81-12Z" style="fill:#a36957"></path><path d="M162.47,283.65s-11.63-7.58-11.35-9.69a11.87,11.87,0,0,1,1.33-4.17,4.19,4.19,0,0,1-2.34-3.59c0-2.5.58-3.88,2.59-4.36,1.7-.4.66-2.84,2.3-3.91s5.46.84,5.46.84l.64-.87a4.94,4.94,0,0,1,3.41-2,4.11,4.11,0,0,1,1.88.11,3.88,3.88,0,0,0,2.22-.22,3.71,3.71,0,0,1,3.76.49l3.45,2.7s5.51,7.26,4.51,16.36c-.93,8.49-1.34,8.35-1.34,8.35Z" style="fill:#a36957"></path><path d="M64.54,342.08c.63.83,11.52,4.89,15.48,9.88a56.37,56.37,0,0,1,4.82,7.37,5.8,5.8,0,0,0,9.42,1l32.43-37.08L88.75,298.16s-27.29-9.76-32.26,9.2S64.54,342.08,64.54,342.08Z" style="fill:#16A34A"></path><path d="M88.59,297.49l.19.1.55.33c.48.29,1.18.74,2.09,1.33l7.84,5.17c6.71,4.49,16.24,10.92,27.56,18.63l.22.15-.17.19c-1.87,2.15-3.83,4.36-5.77,6.72s-4,4.71-6.19,7.12c-4.28,4.84-8.87,9.82-13.46,15.06-1.92,2.2-3.8,4.38-5.6,6.56a12.73,12.73,0,0,1-3.08,3,5.06,5.06,0,0,1-4.22.42,8.6,8.6,0,0,1-3.5-2.27,16.63,16.63,0,0,1-2.35-3.31c-.67-1.15-1.28-2.3-2-3.37a13.71,13.71,0,0,0-2.47-2.84,31.8,31.8,0,0,0-6.15-4,42.46,42.46,0,0,1-6-3.64,29.1,29.1,0,0,1-7.95-9.64,31.07,31.07,0,0,1-3.08-9.85,27.71,27.71,0,0,1,0-7.8c.08-.52.16-1,.23-1.5s.21-.89.31-1.29a13.44,13.44,0,0,1,.58-2c.19-.51.34-.91.44-1.21s.16-.4.17-.4a2,2,0,0,1-.12.42c-.09.3-.22.7-.39,1.22a15.75,15.75,0,0,0-.53,2c-.09.4-.21.82-.29,1.29s-.13,1-.2,1.49a28.39,28.39,0,0,0,.09,7.73,31,31,0,0,0,3.12,9.72,28.72,28.72,0,0,0,7.88,9.46,41.34,41.34,0,0,0,5.92,3.58,32.37,32.37,0,0,1,6.25,4,14.68,14.68,0,0,1,2.56,2.93c.73,1.09,1.35,2.25,2,3.39a16.52,16.52,0,0,0,2.28,3.21,8.08,8.08,0,0,0,3.29,2.13,4.55,4.55,0,0,0,3.81-.37,12.57,12.57,0,0,0,2.94-2.89c1.81-2.19,3.69-4.37,5.61-6.57,4.6-5.25,9.18-10.23,13.47-15.05q3.23-3.61,6.19-7.1c2-2.36,3.92-4.57,5.8-6.71l0,.34Z" style="fill:#263238"></path><path d="M162.45,272.88a3,3,0,0,1-.18.63c-.13.4-.34,1-.61,1.74-.56,1.5-1.39,3.67-2.43,6.34-2.09,5.34-5,12.7-8.3,20.8s-6.28,15.44-8.48,20.74l-2.63,6.26-.74,1.69a3,3,0,0,1-.29.57A2.81,2.81,0,0,1,139,331l.65-1.73,2.48-6.32c2.15-5.38,5.09-12.7,8.34-20.79s6.25-15.38,8.44-20.75l2.58-6.28c.29-.69.52-1.26.71-1.7A3.11,3.11,0,0,1,162.45,272.88Z" style="fill:#7c3b29"></path><path d="M175.82,258.94a3,3,0,0,1,.8.77,12.19,12.19,0,0,1,1.48,2.82c.26.65.53,1.35.86,2.13s.52,1.68.76,2.63.48,2,.69,3.07a10.47,10.47,0,0,1,.22,1.74c0,.61-.13,1.18-.2,1.8-1.18,9.79-2.72,23.31-4.69,38.22s-4.19,28.37-6.11,38c-.94,4.84-1.78,8.74-2.39,11.43q-.47,2-.72,3.09l-.2.8a1.58,1.58,0,0,1-.08.27,1,1,0,0,1,0-.28l.15-.81c.15-.75.36-1.79.62-3.12.55-2.7,1.33-6.61,2.23-11.45,1.83-9.68,4-23.13,5.95-38s3.57-28.43,4.84-38.2c.08-.61.17-1.22.22-1.78a10.45,10.45,0,0,0-.2-1.66c-.19-1.09-.42-2.11-.64-3.06s-.45-1.83-.71-2.62-.58-1.49-.82-2.13a13.45,13.45,0,0,0-1.37-2.84A8.9,8.9,0,0,0,175.82,258.94Z" style="fill:#7c3b29"></path><path d="M139.13,330.39a7,7,0,0,1-2-.66c-.6-.25-1.31-.55-2.07-.93a26.6,26.6,0,0,1-2.41-1.4c-1.67-1-3.22-1.9-4.3-2.6a7.49,7.49,0,0,1-1.68-1.25,10.07,10.07,0,0,1,1.87.93c1.12.62,2.69,1.46,4.38,2.48a37.32,37.32,0,0,0,4.36,2.43A9.69,9.69,0,0,1,139.13,330.39Z" style="fill:#7c3b29"></path><path d="M137.47,344.41a6.92,6.92,0,0,1-.67-1.87,17.14,17.14,0,0,1-.71-4.75,8.75,8.75,0,0,1,1.3-4.64c.69-1.06,1.37-1.48,1.4-1.43s-.51.57-1.08,1.61a9.71,9.71,0,0,0-1.1,4.47,22.64,22.64,0,0,0,.55,4.66A8.43,8.43,0,0,1,137.47,344.41Z" style="fill:#7c3b29"></path><path d="M368.84,262.72a14.9,14.9,0,0,0-21.79,5.81c-2.86,5.73-.28,22.14.54,36.72,1,17.38,1.35,41.61,1.35,41.61L315.9,407,329,413.41l43.6-52a21.82,21.82,0,0,0,4.26-12.11l2.1-52.19C378.67,282.61,377.35,268.62,368.84,262.72Z" style="fill:#ffbe9d"></path><path d="M378.83,292.19a4.07,4.07,0,0,1,0,.73c0,.53,0,1.22,0,2.09-.06,1.87-.14,4.47-.24,7.67-.26,6.53-.61,15.45-1,25.3-.22,4.94-.42,9.65-.61,13.93a79.21,79.21,0,0,1-1,11.36,24.41,24.41,0,0,1-2.48,7.28,14.18,14.18,0,0,1-1.12,1.77,4.51,4.51,0,0,1-.45.57c-.05,0,.57-.83,1.39-2.44a25.75,25.75,0,0,0,2.3-7.25,85.74,85.74,0,0,0,.91-11.31c.17-4.28.37-9,.57-13.93.45-9.85.85-18.77,1.15-25.3.17-3.19.31-5.79.41-7.66.06-.86.1-1.56.14-2.08A3.25,3.25,0,0,1,378.83,292.19Z" style="fill:#eb996e"></path><path d="M365.09,354.07c-.07.06-.71-.76-1.95-1.87a19.23,19.23,0,0,0-5.49-3.37,18.8,18.8,0,0,0-6.31-1.28c-1.66,0-2.69.12-2.7,0s.24-.1.71-.2a12,12,0,0,1,2-.2,16.84,16.84,0,0,1,12.05,4.75,11.94,11.94,0,0,1,1.32,1.51C365,353.83,365.12,354.05,365.09,354.07Z" style="fill:#eb996e"></path><path d="M348.94,346.86a3.61,3.61,0,0,1-.25.63l-.81,1.77c-.69,1.54-1.78,3.73-3.13,6.43-2.71,5.39-6.64,12.74-11.12,20.78s-8.66,15.26-11.72,20.45l-3.67,6.14-1,1.65a3.57,3.57,0,0,1-.39.55,3,3,0,0,1,.3-.61l.94-1.7,3.52-6.21c3-5.24,7.1-12.48,11.58-20.52s8.46-15.36,11.26-20.7c1.38-2.68,2.52-4.84,3.27-6.35l.89-1.72A3,3,0,0,1,348.94,346.86Z" style="fill:#eb996e"></path><path d="M324.32,404.49l-18.07,1.3s-7.47,6.18-9.12,8.17c-1.42,1.7-1.35,4,.57,5l-3.36,4.33s-.9,2.14,0,3.37,3.36,0,3.36,0l14.75-12.19s-11,15.23-11.7,16.87-.48,2.05,1.6,2.37,15.87-14.59,15.87-14.59-8.64,12.59-8.64,14.69a1.73,1.73,0,0,0,1.75,1.82c1.45.12,5.5-5.7,5.5-5.7l7.49-9.85h0A6.31,6.31,0,0,0,330.7,418l3.13-10.28Z" style="fill:#ffbe9d"></path><path d="M297.82,413.41a3,3,0,0,1,.57-.61c.47-.43,1-.95,1.71-1.56,1.47-1.33,3.56-3.18,6-5.31l.06-.05h.09l5-.31c4.46-.27,8.49-.48,11.41-.6l3.46-.13a5.34,5.34,0,0,1,1.28,0,7.1,7.1,0,0,1-1.26.17l-3.46.29c-2.91.22-6.94.49-11.4.76l-5,.29.15-.06c-2.47,2.1-4.6,3.9-6.13,5.16l-1.8,1.46A4,4,0,0,1,297.82,413.41Z" style="fill:#eb996e"></path><path d="M309.58,409.73s-.3,0-.8,0a4.44,4.44,0,0,0-1.95.84,20.64,20.64,0,0,0-2.44,2.15c-.88.85-1.85,1.8-2.85,2.81-2,2-3.76,3.91-5,5.29a20,20,0,0,1-2.1,2.18,16.12,16.12,0,0,1,1.82-2.42c1.2-1.45,2.92-3.38,4.94-5.41,1-1,2-2,2.9-2.8a18.51,18.51,0,0,1,2.55-2.11,4.23,4.23,0,0,1,2.14-.73C309.31,409.57,309.59,409.7,309.58,409.73Z" style="fill:#eb996e"></path><path d="M311.5,414.94a14,14,0,0,1-1.26,2.66c-.87,1.6-2.14,3.77-3.69,6.08s-3.08,4.3-4.24,5.7a13.61,13.61,0,0,1-2,2.18,19.27,19.27,0,0,1,1.69-2.4c1.08-1.46,2.55-3.48,4.09-5.77s2.86-4.42,3.81-6A21.3,21.3,0,0,1,311.5,414.94Z" style="fill:#eb996e"></path></g><g id="freepik--Plant--inject-102"><rect x="347.97" y="121.71" width="120.69" height="6.21" style="fill:#455a64"></rect><path d="M452.35,65.27s0-.06-.08-.17l-.26-.48c-.24-.42-.61-1-1.14-1.79a19.29,19.29,0,0,0-5.65-5.33,13.78,13.78,0,0,0-5.06-1.86,12.45,12.45,0,0,0-6.15.65,10,10,0,0,0-5.27,4.31c-1.21,2.11-1.59,4.59-2.3,7A12.72,12.72,0,0,1,425,70.88a10.07,10.07,0,0,1-2.5,2.46c-.94.69-1.93,1.32-2.82,2a12.19,12.19,0,0,0-2.29,2.48A15,15,0,0,0,415,83.6,20.1,20.1,0,0,0,414.7,89a40.67,40.67,0,0,0,1.38,7.66c.23.89.43,1.57.56,2a6.89,6.89,0,0,0,.23.7,3.58,3.58,0,0,0-.14-.73c-.12-.5-.28-1.19-.49-2.05A44,44,0,0,1,415,89a20.34,20.34,0,0,1,.36-5.29,15.19,15.19,0,0,1,2.32-5.58,12.25,12.25,0,0,1,2.23-2.39c.87-.7,1.85-1.32,2.81-2a10.57,10.57,0,0,0,2.6-2.57,13.07,13.07,0,0,0,1.53-3.43c.71-2.41,1.1-4.86,2.26-6.88a9.67,9.67,0,0,1,5-4.15,12.26,12.26,0,0,1,6-.66,13.65,13.65,0,0,1,5,1.77,19.73,19.73,0,0,1,5.66,5.17c.55.73.95,1.33,1.21,1.73A5.06,5.06,0,0,0,452.35,65.27Z" style="fill:#e0e0e0"></path><path d="M421.36,74c.66-.6,1-.18,1.85,0a5.41,5.41,0,0,1,2.37,1.18,10,10,0,0,1,3.23,10.47,7.78,7.78,0,0,1-7.15-11.7" style="fill:#e0e0e0"></path><path d="M448.17,61.76c.32-.83.79-.58,1.65-.81a5.41,5.41,0,0,1,2.65,0,10,10,0,0,1,7.42,8.06,7.78,7.78,0,0,1-11.48-7.48" style="fill:#e0e0e0"></path><path d="M415.46,90.48a9,9,0,0,1,14.13.68,11.06,11.06,0,0,1-7.33,2.89,11.36,11.36,0,0,1-7.38-3" style="fill:#e0e0e0"></path><path d="M417.66,78.14a9.1,9.1,0,0,1-9.2-10.86A8.17,8.17,0,0,1,418,78.05" style="fill:#e0e0e0"></path><path d="M427.09,63.65a9.1,9.1,0,0,1-12.28-7.2,8.18,8.18,0,0,1,12.54,7" style="fill:#e0e0e0"></path><path d="M430.26,58.91a9.1,9.1,0,0,1,12.28,7.2,8.17,8.17,0,0,1-12.54-7" style="fill:#e0e0e0"></path><path d="M434,56.37A9.11,9.11,0,0,1,429.18,43a8.17,8.17,0,0,1,5.16,13.41" style="fill:#e0e0e0"></path><path d="M443.69,56.83a9.1,9.1,0,0,1,7.43-12.14,8.17,8.17,0,0,1-7.25,12.4" style="fill:#e0e0e0"></path><polyline points="404.74 122.13 399.6 89.83 439.04 90.31 435.15 121.71" style="fill:#263238"></polyline><path d="M421.76,83.93a6.74,6.74,0,0,0,6.55.55,7.11,7.11,0,0,0,3.58-5.66,8,8,0,0,0-6.54-.33A8,8,0,0,0,421,83.35" style="fill:#16A34A"></path><path d="M439.79,90.88a6.72,6.72,0,0,0,6.55.56,7.11,7.11,0,0,0,3.58-5.66A7.56,7.56,0,0,0,439,90.31" style="fill:#16A34A"></path><path d="M429.67,75.35a6.72,6.72,0,0,0,5.17,4.06,7.1,7.1,0,0,0,6.1-2.76,8,8,0,0,0-5.28-3.87,8,8,0,0,0-6.3,1.67" style="fill:#16A34A"></path><path d="M436.25,83.4a6.71,6.71,0,0,0-5.88,2.91,7.09,7.09,0,0,0-.14,6.7,8.1,8.1,0,0,0,5.77-3.1,8,8,0,0,0,1.2-6.41" style="fill:#16A34A"></path><path d="M442.61,96.11a6.73,6.73,0,0,0,.15,6.57,7.09,7.09,0,0,0,6,2.95,8,8,0,0,0-.38-6.53c-1-1.89-2.9-2.82-5.24-3.35" style="fill:#16A34A"></path><path d="M453.09,97.61a4.86,4.86,0,0,0-1.56-1,6.92,6.92,0,0,0-2.14-.37,24.39,24.39,0,0,0-2.91.17,8.48,8.48,0,0,1-3.58-.31,5.51,5.51,0,0,1-3-2.86,16.58,16.58,0,0,1-1.28-4.36,12.34,12.34,0,0,0-1.52-4.48A15.75,15.75,0,0,0,433.81,81a16,16,0,0,1-3.19-3.24A10.62,10.62,0,0,1,429,70.35,10.32,10.32,0,0,1,431,65.58a7.78,7.78,0,0,1,.94-1,2,2,0,0,1,.37-.31,1.69,1.69,0,0,1-.31.37,13.11,13.11,0,0,0-.87,1.08,10.7,10.7,0,0,0-1.77,4.72,10.49,10.49,0,0,0,1.61,7.16,15.82,15.82,0,0,0,3.14,3.14,15.93,15.93,0,0,1,3.42,3.48,12.79,12.79,0,0,1,1.57,4.63,16.85,16.85,0,0,0,1.22,4.27,5.17,5.17,0,0,0,2.73,2.7,8.4,8.4,0,0,0,3.44.34A23.59,23.59,0,0,1,449.4,96a6.49,6.49,0,0,1,2.19.46,3.74,3.74,0,0,1,1.19.77,2.21,2.21,0,0,1,.24.27C453.07,97.57,453.1,97.6,453.09,97.61Z" style="fill:#16A34A"></path><path d="M453.09,97.61a4.86,4.86,0,0,0-1.56-1,6.92,6.92,0,0,0-2.14-.37,24.39,24.39,0,0,0-2.91.17,8.48,8.48,0,0,1-3.58-.31,5.51,5.51,0,0,1-3-2.86,16.58,16.58,0,0,1-1.28-4.36,12.34,12.34,0,0,0-1.52-4.48A15.75,15.75,0,0,0,433.81,81a16,16,0,0,1-3.19-3.24A10.62,10.62,0,0,1,429,70.35,10.32,10.32,0,0,1,431,65.58a7.78,7.78,0,0,1,.94-1,2,2,0,0,1,.37-.31,1.69,1.69,0,0,1-.31.37,13.11,13.11,0,0,0-.87,1.08,10.7,10.7,0,0,0-1.77,4.72,10.49,10.49,0,0,0,1.61,7.16,15.82,15.82,0,0,0,3.14,3.14,15.93,15.93,0,0,1,3.42,3.48,12.79,12.79,0,0,1,1.57,4.63,16.85,16.85,0,0,0,1.22,4.27,5.17,5.17,0,0,0,2.73,2.7,8.4,8.4,0,0,0,3.44.34A23.59,23.59,0,0,1,449.4,96a6.49,6.49,0,0,1,2.19.46,3.74,3.74,0,0,1,1.19.77,2.21,2.21,0,0,1,.24.27C453.07,97.57,453.1,97.6,453.09,97.61Z" style="fill:#16A34A"></path><path d="M377.79,100.92a10,10,0,0,0-13.5-9.83,16.63,16.63,0,0,0,13.15,9.7" style="fill:#16A34A"></path><path d="M375.19,102.29c-1.93,2.12-1.81,5.53-.43,8s3.76,4.3,6.14,5.89a13,13,0,0,0-5.58-14.7" style="fill:#16A34A"></path><path d="M384.53,92.36a11.53,11.53,0,0,0,13.09,10.26c-.75-3.1-2-6.23-4.39-8.33s-6.17-2.89-8.82-1.12" style="fill:#16A34A"></path><path d="M384.47,89.2c-.48-2.83-3.27-4.87-6.12-5.14a11.73,11.73,0,0,0-8,2.68,10.34,10.34,0,0,0,14.1,1.39" style="fill:#16A34A"></path><path d="M369.78,113.2c-2.71,2.31-3.39,6.43-2.26,9.81a16.26,16.26,0,0,0,6.72,8,21.41,21.41,0,0,0,1.25-10.43c-.6-3.48-2.7-6.85-5.94-8.27" style="fill:#16A34A"></path><path d="M384,81.28a8.32,8.32,0,0,1,13.19-.77,7.19,7.19,0,0,1-13,.33" style="fill:#16A34A"></path><path d="M387.35,73.14a10.83,10.83,0,0,1-13.8-8.46,25,25,0,0,1,6.52.09,10.64,10.64,0,0,1,5.77,2.85,5.71,5.71,0,0,1,1.51,5.52" style="fill:#16A34A"></path><path d="M393.61,71a8.83,8.83,0,0,1-.06-13.64,18.4,18.4,0,0,1,3.87,8.24,6.94,6.94,0,0,1,0,3.42A3.15,3.15,0,0,1,395,71.28" style="fill:#16A34A"></path><g style="opacity:0.4"><path d="M377.79,100.92a10,10,0,0,0-13.5-9.83,16.63,16.63,0,0,0,13.15,9.7"></path></g><g style="opacity:0.4"><path d="M375.19,102.29c-1.93,2.12-1.81,5.53-.43,8s3.76,4.3,6.14,5.89a13,13,0,0,0-5.58-14.7"></path></g><g style="opacity:0.4"><path d="M384.53,92.36a11.53,11.53,0,0,0,13.09,10.26c-.75-3.1-2-6.23-4.39-8.33s-6.17-2.89-8.82-1.12"></path></g><g style="opacity:0.4"><path d="M384.47,89.2c-.48-2.83-3.27-4.87-6.12-5.14a11.73,11.73,0,0,0-8,2.68,10.34,10.34,0,0,0,14.1,1.39"></path></g><g style="opacity:0.4"><path d="M369.78,113.2c-2.71,2.31-3.39,6.43-2.26,9.81a16.26,16.26,0,0,0,6.72,8,21.41,21.41,0,0,0,1.25-10.43c-.6-3.48-2.7-6.85-5.94-8.27"></path></g><g style="opacity:0.4"><path d="M384,81.28a8.32,8.32,0,0,1,13.19-.77,7.19,7.19,0,0,1-13,.33"></path></g><g style="opacity:0.4"><path d="M387.35,73.14a10.83,10.83,0,0,1-13.8-8.46,25,25,0,0,1,6.52.09,10.64,10.64,0,0,1,5.77,2.85,5.71,5.71,0,0,1,1.51,5.52"></path></g><g style="opacity:0.4"><path d="M393.61,71a8.83,8.83,0,0,1-.06-13.64,18.4,18.4,0,0,1,3.87,8.24,6.94,6.94,0,0,1,0,3.42A3.15,3.15,0,0,1,395,71.28"></path></g><path d="M404.43,90.87a.7.7,0,0,1,0-.23l0-.65c0-.57.09-1.41.11-2.49a22.45,22.45,0,0,0-1.47-9,13.72,13.72,0,0,0-3.6-5.07A9.63,9.63,0,0,0,393,71.05a8.08,8.08,0,0,0-3.7.93,7.27,7.27,0,0,0-2.86,2.73A14.65,14.65,0,0,0,384.73,83c.1,2.94.52,5.84.2,8.67a13.66,13.66,0,0,1-1.08,4,8.45,8.45,0,0,1-2.43,3.18,12.17,12.17,0,0,1-3.38,1.73,17.19,17.19,0,0,0-3.19,1.44,11.67,11.67,0,0,0-4.18,4.56,11.09,11.09,0,0,0-1.21,5,11.57,11.57,0,0,0,.64,3.85,13.81,13.81,0,0,0,1.49,3,.69.69,0,0,1-.15-.17c-.08-.12-.22-.29-.38-.53a10.65,10.65,0,0,1-1.12-2.24,11.71,11.71,0,0,1-.72-3.91,11.31,11.31,0,0,1,1.18-5.12,11.82,11.82,0,0,1,4.27-4.73c1.95-1.3,4.52-1.62,6.51-3.18s3-4.22,3.33-6.94-.1-5.63-.21-8.61A15.1,15.1,0,0,1,386,74.49a7.73,7.73,0,0,1,3-2.87,8.53,8.53,0,0,1,3.88-1,10,10,0,0,1,6.8,2.54,13.85,13.85,0,0,1,3.65,5.22,19,19,0,0,1,1.24,5.11,27.91,27.91,0,0,1,.11,4c0,1.09-.12,1.93-.19,2.5,0,.26-.06.48-.08.65A.86.86,0,0,1,404.43,90.87Z" style="fill:#16A34A"></path><g style="opacity:0.4"><path d="M404.43,90.87a.7.7,0,0,1,0-.23l0-.65c0-.57.09-1.41.11-2.49a22.45,22.45,0,0,0-1.47-9,13.72,13.72,0,0,0-3.6-5.07A9.63,9.63,0,0,0,393,71.05a8.08,8.08,0,0,0-3.7.93,7.27,7.27,0,0,0-2.86,2.73A14.65,14.65,0,0,0,384.73,83c.1,2.94.52,5.84.2,8.67a13.66,13.66,0,0,1-1.08,4,8.45,8.45,0,0,1-2.43,3.18,12.17,12.17,0,0,1-3.38,1.73,17.19,17.19,0,0,0-3.19,1.44,11.67,11.67,0,0,0-4.18,4.56,11.09,11.09,0,0,0-1.21,5,11.57,11.57,0,0,0,.64,3.85,13.81,13.81,0,0,0,1.49,3,.69.69,0,0,1-.15-.17c-.08-.12-.22-.29-.38-.53a10.65,10.65,0,0,1-1.12-2.24,11.71,11.71,0,0,1-.72-3.91,11.31,11.31,0,0,1,1.18-5.12,11.82,11.82,0,0,1,4.27-4.73c1.95-1.3,4.52-1.62,6.51-3.18s3-4.22,3.33-6.94-.1-5.63-.21-8.61A15.1,15.1,0,0,1,386,74.49a7.73,7.73,0,0,1,3-2.87,8.53,8.53,0,0,1,3.88-1,10,10,0,0,1,6.8,2.54,13.85,13.85,0,0,1,3.65,5.22,19,19,0,0,1,1.24,5.11,27.91,27.91,0,0,1,.11,4c0,1.09-.12,1.93-.19,2.5,0,.26-.06.48-.08.65A.86.86,0,0,1,404.43,90.87Z"></path></g><path d="M461.86,83.82a8.37,8.37,0,0,0,.59-2.89,7.2,7.2,0,0,0-.77-3.34,6.93,6.93,0,0,0-3.21-3.11,7,7,0,0,0-2.54-.68,8.21,8.21,0,0,0-2.83.33c-1.94.51-3.85,1.61-6.13,2.06a7.18,7.18,0,0,1-3.56-.09,5.27,5.27,0,0,1-2.89-2.31c-1.38-2.14-1.77-4.82-3.43-6.79A6.81,6.81,0,0,0,434,65a8.69,8.69,0,0,0-3.64-.37,9.36,9.36,0,0,0-6.06,3.15,14.16,14.16,0,0,0-3,5.56,16.66,16.66,0,0,0-.67,5.51,60.12,60.12,0,0,0,1,8.06c.16.92.29,1.64.38,2.18,0,.23.06.42.08.57s0,.2,0,.2a.62.62,0,0,1-.06-.19l-.13-.56-.45-2.17a54.34,54.34,0,0,1-1.16-8.08,16.75,16.75,0,0,1,.63-5.62A14.47,14.47,0,0,1,424,67.48a11,11,0,0,1,2.77-2.21,9.32,9.32,0,0,1,3.54-1.09,9.18,9.18,0,0,1,3.81.38,7.16,7.16,0,0,1,3.31,2.17c1.76,2.11,2.14,4.81,3.46,6.83a4.91,4.91,0,0,0,2.66,2.15,6.84,6.84,0,0,0,3.36.09c2.2-.42,4.13-1.5,6.11-2a8.63,8.63,0,0,1,3-.32,7.34,7.34,0,0,1,2.64.74,7.2,7.2,0,0,1,3.3,3.27,7.35,7.35,0,0,1,.72,3.45,6.63,6.63,0,0,1-.43,2.18A4,4,0,0,1,461.86,83.82Z" style="fill:#16A34A"></path><path d="M438.79,69.5a7.69,7.69,0,0,0,7,.47,7.11,7.11,0,0,0,3.58-5.66,7.56,7.56,0,0,0-10.88,4.52" style="fill:#16A34A"></path><path d="M446.27,76.29a7.65,7.65,0,0,0,3.27,6.24,7.08,7.08,0,0,0,6.69.12,7.56,7.56,0,0,0-9.53-6.94" style="fill:#16A34A"></path><path d="M459.24,74.78a7.68,7.68,0,0,0,7.05-.29,7.08,7.08,0,0,0,2.95-6,8,8,0,0,0-6.53.37,7.93,7.93,0,0,0-3.8,5.3" style="fill:#16A34A"></path><path d="M427.9,65c-1.89-1.63-3.16-4.49-2.8-6.64a7.08,7.08,0,0,1,4.35-5.09A7.57,7.57,0,0,1,428.34,65" style="fill:#16A34A"></path><path d="M377.25,55.72s0-.06.07-.17l.26-.48c.24-.42.62-1,1.15-1.79A19.36,19.36,0,0,1,384.37,48a13.66,13.66,0,0,1,5.07-1.86,12.56,12.56,0,0,1,6.15.64A10,10,0,0,1,400.85,51c1.21,2.12,1.6,4.59,2.31,7a12.43,12.43,0,0,0,1.47,3.32,10.11,10.11,0,0,0,2.5,2.47c.94.69,1.92,1.32,2.82,2.05a11.86,11.86,0,0,1,2.28,2.48,15.15,15.15,0,0,1,2.35,5.73,20.07,20.07,0,0,1,.31,5.38,41,41,0,0,1-1.37,7.66q-.36,1.34-.57,2a4.7,4.7,0,0,1-.23.7,5.73,5.73,0,0,1,.15-.73c.12-.5.28-1.19.49-2a44.5,44.5,0,0,0,1.23-7.64,19.92,19.92,0,0,0-.36-5.29,14.86,14.86,0,0,0-2.32-5.58,12.2,12.2,0,0,0-2.22-2.39c-.87-.7-1.85-1.32-2.81-2a10,10,0,0,1-2.6-2.56,12.59,12.59,0,0,1-1.53-3.43c-.72-2.41-1.11-4.86-2.26-6.88a9.58,9.58,0,0,0-5-4.15,12.29,12.29,0,0,0-6-.66,13.65,13.65,0,0,0-5,1.77,19.65,19.65,0,0,0-5.67,5.17c-.55.73-.94,1.33-1.2,1.73A5.06,5.06,0,0,1,377.25,55.72Z" style="fill:#16A34A"></path><path d="M408.23,64.41c-.65-.61-1-.18-1.84,0A5.36,5.36,0,0,0,404,65.57,10,10,0,0,0,400.78,76a7.78,7.78,0,0,0,7.15-11.7" style="fill:#16A34A"></path><path d="M381.43,52.21c-.33-.83-.8-.58-1.66-.82a5.49,5.49,0,0,0-2.64,0,10,10,0,0,0-7.43,8.06A7.79,7.79,0,0,0,381.19,52" style="fill:#16A34A"></path><path d="M414.14,80.92a9,9,0,0,0-14.13.69,11.06,11.06,0,0,0,7.33,2.89,11.38,11.38,0,0,0,7.38-3" style="fill:#16A34A"></path><path d="M411.94,68.59a9.1,9.1,0,0,0,9.19-10.87,8.18,8.18,0,0,0-9.5,10.78" style="fill:#16A34A"></path><path d="M402.5,54.1a9.11,9.11,0,0,0,12.29-7.2,8.18,8.18,0,0,0-12.54,7" style="fill:#16A34A"></path><path d="M399.34,49.36a9.11,9.11,0,0,0-12.29,7.2,8.18,8.18,0,0,0,12.54-7" style="fill:#16A34A"></path><path d="M395.57,46.82a9.11,9.11,0,0,0,4.85-13.39,8.17,8.17,0,0,0-5.16,13.41" style="fill:#16A34A"></path><path d="M385.91,47.28a9.12,9.12,0,0,0-7.44-12.15,8.17,8.17,0,0,0,7.26,12.4" style="fill:#16A34A"></path><polygon points="399.09 118.39 402.11 122.13 439.23 122.13 441.76 118.39 399.09 118.39" style="fill:#263238"></polygon><path d="M441,118.36c0,.11-9.13.21-20.38.21s-20.37-.1-20.37-.21,9.12-.22,20.37-.22S441,118.24,441,118.36Z" style="fill:#455a64"></path><path d="M436.77,104.26a1.32,1.32,0,0,1-.23.31,7.24,7.24,0,0,1-.76.79,13.52,13.52,0,0,1-3.31,2.3,14.55,14.55,0,0,1-5.79,1.49,14,14,0,0,1-3.55-.3,19.85,19.85,0,0,1-3.61-1.2c-2.4-1-4.57-2.18-6.69-2.85a11.6,11.6,0,0,0-5.78-.56,7.58,7.58,0,0,0-3.54,1.65c-.7.61-1,1.08-1,1a1.35,1.35,0,0,1,.19-.34,5.73,5.73,0,0,1,.71-.84A7.36,7.36,0,0,1,407,104a11.59,11.59,0,0,1,6,.47c2.17.67,4.37,1.83,6.73,2.84a21,21,0,0,0,3.54,1.18,13.2,13.2,0,0,0,3.44.31,14.56,14.56,0,0,0,5.68-1.36A17.46,17.46,0,0,0,436.77,104.26Z" style="fill:#455a64"></path><path d="M437.14,101.36a1.49,1.49,0,0,1-.25.29,9.92,9.92,0,0,1-.81.74,15.5,15.5,0,0,1-3.44,2.13,15.87,15.87,0,0,1-9.39,1.16,24.37,24.37,0,0,1-3.67-1c-2.45-.89-4.7-1.91-6.85-2.51a13.61,13.61,0,0,0-5.82-.53,8.82,8.82,0,0,0-3.68,1.4c-.77.55-1.11,1-1.14.93a1.32,1.32,0,0,1,.23-.31,7.21,7.21,0,0,1,.81-.75,8.54,8.54,0,0,1,3.73-1.57,13.55,13.55,0,0,1,6,.45c2.19.59,4.46,1.61,6.88,2.49a25.55,25.55,0,0,0,3.61,1,15.82,15.82,0,0,0,3.46.25,16.43,16.43,0,0,0,5.73-1.27A20.18,20.18,0,0,0,437.14,101.36Z" style="fill:#455a64"></path><rect x="380.65" y="126.29" width="3.62" height="10.1" style="fill:#455a64"></rect><rect x="432.34" y="126.29" width="3.62" height="10.1" style="fill:#455a64"></rect></g><g id="freepik--speech-bubble--inject-102"><path d="M227.43,175.14l-2.62-.08-5.46-8.14.16-5.22s-4-.38-3.77,6.48-.2,5.1-.2,5.1-8.59-.24-9.33.49c-.53.52-1,9-1.27,13.67a5,5,0,0,0,3.4,5.16,3.61,3.61,0,0,0,.92.15c2.14.07,13.14-1.33,13.14-1.33l4.52.14Z" style="fill:#16A34A"></path><polygon points="234.97 173.94 232.81 191.79 228.32 191.65 228.87 174.11 234.97 173.94" style="fill:#16A34A"></polygon><path d="M220,139.16a3.4,3.4,0,0,0-.7,0l-2.08.06c-.45,0-1,0-1.53.06l-1.83.26-2.13.31-2.39.59a38.49,38.49,0,0,0-11.56,5,41.43,41.43,0,0,0-12,11.65,41.86,41.86,0,0,0-6.78,19,43.24,43.24,0,0,0-.12,5.59c.07,1,.05,1.91.19,2.86s.29,1.92.43,2.88a40.93,40.93,0,0,0,3.89,11.38,43.64,43.64,0,0,0,7.43,10.23,43,43,0,0,0,10.71,7.69,38.75,38.75,0,0,0,13.05,4,26.78,26.78,0,0,0,3.48.29,31.76,31.76,0,0,0,3.52.07,42.35,42.35,0,0,0,7-.89,41.23,41.23,0,0,0,14-5.91l-.43,0,14.3,5.74.84.34-.24-.88-4.2-15.28-.07.38a41.05,41.05,0,0,0,7.63-17.46,37.26,37.26,0,0,0,.55-8.95,28.74,28.74,0,0,0-.4-4.29c-.11-.71-.22-1.4-.33-2.1s-.34-1.35-.5-2a40.83,40.83,0,0,0-15.95-23.25,38.86,38.86,0,0,0-9.49-5l-2.13-.77-2-.51-1.86-.46c-.59-.12-1.17-.18-1.71-.26-1.08-.14-2-.33-2.86-.37l-2.1-.07-1.28,0a2.12,2.12,0,0,0-.44,0l.44.06,1.27.1,2.09.14c.83.06,1.77.27,2.84.43A40.67,40.67,0,0,1,259.11,170c.15.66.36,1.31.48,2s.2,1.36.31,2.05a28,28,0,0,1,.37,4.22,35.77,35.77,0,0,1-.58,8.77,40.14,40.14,0,0,1-7.52,17.08l-.13.17.06.21,4.17,15.29.6-.54-14.28-5.75-.23-.09-.2.13a40.23,40.23,0,0,1-20.61,6.64,30.34,30.34,0,0,1-3.44-.06,25.71,25.71,0,0,1-3.4-.29,38.18,38.18,0,0,1-12.77-3.9,42.2,42.2,0,0,1-10.48-7.51,42.87,42.87,0,0,1-7.3-10,40.18,40.18,0,0,1-3.85-11.14c-.14-.94-.29-1.88-.43-2.82s-.13-1.87-.19-2.8a40.1,40.1,0,0,1,.08-5.49A40.4,40.4,0,0,1,198,145.91a38.79,38.79,0,0,1,11.38-5.13l2.35-.63,2.11-.35,1.82-.3c.55-.06,1.06-.07,1.51-.11l2.07-.15A3.9,3.9,0,0,0,220,139.16Z" style="fill:#455a64"></path></g></svg>